<svg width="100" height="45" viewBox="0 0 100 45" fill="none" xmlns="http://www.w3.org/2000/svg">
<rect width="100" height="45" rx="5" fill="#4CA4F4"/>
<rect x="18" y="38" width="64" height="4" rx="1" fill="#1A1A1A"/>
<rect x="5" y="31" width="9" height="4" rx="1" fill="#1A1A1A"/>
<rect x="5" y="24" width="13" height="4" rx="1" fill="#1A1A1A"/>
<rect x="5" y="17" width="7" height="4" rx="1" fill="#1A1A1A"/>
<rect x="5" y="10" width="5" height="4" rx="1" fill="#1A1A1A"/>
<rect x="20" y="31" width="9" height="4" rx="1" fill="#1A1A1A"/>
<rect x="20" y="10" width="9" height="4" rx="1" fill="#1A1A1A"/>
<rect x="35" y="31" width="9" height="4" rx="1" fill="#1A1A1A"/>
<rect x="35" y="24" width="9" height="4" rx="1" fill="#1A1A1A"/>
<rect x="35" y="17" width="9" height="4" rx="1" fill="#1A1A1A"/>
<rect x="50" y="31" width="9" height="4" rx="1" fill="#1A1A1A"/>
<rect x="50" y="24" width="9" height="4" rx="1" fill="#1A1A1A"/>
<rect x="65" y="31" width="9" height="4" rx="1" fill="#1A1A1A"/>
<rect x="65" y="17" width="9" height="4" rx="1" fill="#1A1A1A"/>
<rect x="80" y="31" width="13" height="4" rx="1" fill="#1A1A1A"/>
<rect x="85" y="24" width="8" height="4" rx="1" fill="#1A1A1A"/>
<rect x="85" y="17" width="8" height="4" rx="1" fill="#1A1A1A"/>
<rect x="80" y="10" width="13" height="4" rx="1" fill="#1A1A1A"/>
</svg>
